<svg id="Camada_1" data-name="Camada 1" xmlns="http://www.w3.org/2000/svg" viewBox="0 0 83.17 100"><defs><style>.cls-1{fill:#e51f44;}.cls-2{fill:#1e1118;}</style></defs><path class="cls-1" d="M71.43,38.4H66.77V18.45c0-7.6-5.33-13.78-11.87-13.78S43,10.85,43,18.45V38.28H38.36V18.45C38.36,8.28,45.78,0,54.9,0S71.43,8.28,71.43,18.45Z" transform="translate(-8.41 0)"/><path class="cls-2" d="M21.64,99a1.91,1.91,0,0,1-1.9-1.9V28.16H90.59V97.1a1.91,1.91,0,0,1-1.9,1.9Z" transform="translate(-8.41 0)"/><path class="cls-1" d="M89.59,29.16V97.1a.9.9,0,0,1-.9.9h-67a.9.9,0,0,1-.9-.9V29.16H89.59m2-2H18.74V97.1a2.9,2.9,0,0,0,2.9,2.9H88.69a2.9,2.9,0,0,0,2.9-2.9V27.16Z" transform="translate(-8.41 0)"/><path class="cls-2" d="M11.31,99a1.91,1.91,0,0,1-1.9-1.9V28.16H80.25V97.1A1.9,1.9,0,0,1,78.36,99Z" transform="translate(-8.41 0)"/><path class="cls-1" d="M79.26,29.16V97.1a.9.9,0,0,1-.9.9h-67a.9.9,0,0,1-.9-.9V29.16H79.26m2-2H8.41V97.1a2.9,2.9,0,0,0,2.9,2.9H78.36a2.9,2.9,0,0,0,2.9-2.9V27.16Z" transform="translate(-8.41 0)"/><path class="cls-1" d="M58.53,40.73A2.33,2.33,0,0,1,56.2,38.4V18.45c0-7.6-5.33-13.78-11.88-13.78S32.45,10.85,32.45,18.45V38.28a2.34,2.34,0,1,1-4.67,0V18.45C27.78,8.28,35.2,0,44.32,0S60.86,8.28,60.86,18.45v20A2.33,2.33,0,0,1,58.53,40.73Z" transform="translate(-8.41 0)"/></svg>