<svg id="Camada_1" data-name="Camada 1" xmlns="http://www.w3.org/2000/svg" viewBox="0 0 72.51 100"><defs><style>.cls-1{fill:#e51f44;}.cls-2{fill:#b21b3c;}</style></defs><path class="cls-1" d="M86.25,13.11H63.11L50,0,36.89,13.11H13.75v83H46.1L50,100l3.9-3.9H86.25Zm-30.72,80-2,2h-7l-2-2Zm-15.23-77-.3-.3,1.74-1.73H58.26L60,15.81l-.3.3Zm9.7-11-8,8H40l10-10,10,10H58Zm7.29,8H42.71L50,5.82Zm-16.24,1-1.39,1.39-1-1,.37-.37Zm17.9,0h2l.37.37-1,1Zm2.39,0h.4l-.2.19Zm.71,1.05,1,1h-2ZM50,1.37,61.74,13.11H60.37L50,2.73,39.63,13.11H38.26ZM38.66,14.08l-.2.19-.2-.19Zm.27,2H37l1-1Zm-24.21,79v-81H36.89l.88.88-1.15,1.15H17.33L16.4,17V92.17l.93.93H43.1l2,2Zm2.16-74V17.24l.65-.64h3.92Zm4.57,71.45H17.53L16.88,92V88.05Zm28.55,6L47.48,96.1h5Zm35.28-3.5H54.87l2-2H82.67l.93-.93V17l-.93-.93H63.38L62.23,15l.88-.88H85.28Zm-2.16-7.08V92l-.65.64H78.55ZM78.55,16.6h3.92l.65.64v3.92Z" transform="translate(-13.75 0)"/><path class="cls-2" d="M50,30.15,36.21,16.35,50,2.56,63.79,16.35ZM36.89,16.35,50,29.46,63.11,16.35,50,3.25Z" transform="translate(-13.75 0)"/></svg>