<svg id="Camada_1" data-name="Camada 1" xmlns="http://www.w3.org/2000/svg" viewBox="0 0 98 98"><defs><style>.cls-1{fill:#e51f44;}</style></defs><path class="cls-1" d="M43.65,1.41a50.53,50.53,0,0,0-14,4A49,49,0,1,0,77,9.11,60.22,60.22,0,0,0,64.94,3.32,49.16,49.16,0,0,0,50,1a49.94,49.94,0,0,0-5.77.34A5.73,5.73,0,0,1,43.65,1.41ZM79.44,18.73A41.23,41.23,0,0,1,93.06,47.12,43.12,43.12,0,0,1,64.45,91c-.21.07-.42.15-.64.21-1.86.5-3.15-.43-3.18-2.35,0-2.11,0-4.24,0-6.72-.12-2.26.21-4.9-.2-7.52a9.6,9.6,0,0,0-1.67-4.27c-.81-1.11-.79-1.13.62-1.34a35.29,35.29,0,0,0,5.46-1.22c7.1-2.22,11.15-7.07,12.34-14.34a25,25,0,0,0,.09-9,15.49,15.49,0,0,0-3.18-6.93,2.24,2.24,0,0,1-.51-2.2,16,16,0,0,0-.48-9.2,1.32,1.32,0,0,0-1.48-1.06,12.76,12.76,0,0,0-4.39,1,28,28,0,0,0-5.11,2.69,2.67,2.67,0,0,1-2.28.41A38.68,38.68,0,0,0,40,29.27a2.09,2.09,0,0,1-1.81-.35,27.29,27.29,0,0,0-7.29-3.47c-3.32-.92-3.78-.65-4.53,2.69a15.07,15.07,0,0,0,.09,7.34,1.69,1.69,0,0,1-.29,1.7c-3.23,3.91-4.11,8.48-3.7,13.39a22.5,22.5,0,0,0,2.65,9.58c2.6,4.5,6.73,6.84,11.61,8.1a36,36,0,0,0,4.26.82c1,.14,1,.29.47,1a10.13,10.13,0,0,0-1.81,4.11,1.5,1.5,0,0,1-1.07,1.22c-4.63,1.64-9.07.76-11.78-3.83a8.36,8.36,0,0,0-6.24-4.4,3.39,3.39,0,0,0-1.52.11c-.84.25-1,.76-.4,1.42a5,5,0,0,0,1,.87,11.54,11.54,0,0,1,4.76,5.91c1.79,4.79,6.15,6.93,11.23,6.72a21.77,21.77,0,0,0,2.68-.31c.77-.13,1.07.11,1.07.89,0,2,0,3.92,0,5.88S38,91.8,35.93,91.14a37,37,0,0,1-7.37-3.33C15.93,80.25,8.64,69.16,7,54.56A43,43,0,0,1,41.19,8.07C55.65,5.19,68.54,8.74,79.44,18.73Z" transform="translate(-1 -1)"/></svg>