<svg id="Camada_1" data-name="Camada 1" xmlns="http://www.w3.org/2000/svg" viewBox="0 0 98.21 98.21"><defs><style>.cls-1{fill:#e51f44;}</style></defs><path class="cls-1" d="M.91,50c0-6.82,0-13.65.28-20.47.25-5.16,1.14-10.18,3.68-14.74C9.14,7.12,15.87,3,24.38,1.71A107.74,107.74,0,0,1,39.93.91c3.35,0,6.71,0,10.06,0,7.16,0,14.33-.12,21.49.33,6.12.39,11.91,1.85,16.89,5.67,5.75,4.42,8.81,10.4,9.91,17.46A95.92,95.92,0,0,1,99.06,39c0,10.48.23,21-.26,31.42-.24,5.16-1.14,10.18-3.68,14.74-4.24,7.6-10.93,11.69-19.39,13A90.18,90.18,0,0,1,61.32,99c-10.94,0-21.88.3-32.81-.31-6.17-.35-12-1.86-17-5.73-6.2-4.82-9.17-11.37-10-19A128.4,128.4,0,0,1,.92,59.3c0-3.11,0-6.21,0-9.32m49,40.26c7.41-.1,14.83.1,22.23-.51a20.17,20.17,0,0,0,10.26-3.35c4.87-3.44,6.81-8.43,7.32-14.12.48-5.39.46-10.8.46-16.2,0-9.46.24-18.94-.47-28.38a19.39,19.39,0,0,0-3.65-10.54c-3.46-4.6-8.34-6.4-13.84-6.9S61.44,9.79,56,9.78c-9.38,0-18.77-.22-28.14.46a19.92,19.92,0,0,0-10.37,3.39c-4.86,3.45-6.77,8.46-7.28,14.15-.49,5.42-.47,10.87-.47,16.32,0,9.34-.22,18.68.47,28a20,20,0,0,0,3.48,10.47c3.47,4.79,8.44,6.67,14.09,7.15C35.17,90.35,42.55,90.14,49.92,90.24Z" transform="translate(-0.9 -0.9)"/><path class="cls-1" d="M75.22,50A25.23,25.23,0,1,1,50,24.75,25.21,25.21,0,0,1,75.22,50ZM50,66.32A16.34,16.34,0,1,0,33.66,50,16.35,16.35,0,0,0,50,66.32Z" transform="translate(-0.9 -0.9)"/><path class="cls-1" d="M76.18,29.68a5.91,5.91,0,1,1,5.93-5.84A5.86,5.86,0,0,1,76.18,29.68Z" transform="translate(-0.9 -0.9)"/></svg>