<svg id="Camada_1" data-name="Camada 1" xmlns="http://www.w3.org/2000/svg" viewBox="0 0 98 98"><defs><style>.cls-1{fill:#e51f44;}</style></defs><path class="cls-1" d="M1,92.11V7.89c.37,0,.32-.3.38-.5a8.77,8.77,0,0,1,6-6c.2-.06.52,0,.5-.38H92.11c0,.37.3.32.5.38a8.77,8.77,0,0,1,6,6c.06.2,0,.52.38.5V92.11c-.37,0-.32.3-.38.5a8.77,8.77,0,0,1-6,6c-.2.06-.52,0-.5.38H7.89c0-.37-.3-.32-.5-.38a8.77,8.77,0,0,1-6-6C1.32,92.41,1.37,92.09,1,92.11ZM54.75,43c0-1,0-2.09,0-3.14A2.53,2.53,0,0,0,51.92,37H41.58c-2,0-3,.93-3,3V85.22c0,2.06.92,3,3,3h10c2.32,0,3.16-.86,3.16-3.18,0-7.82,0-15.63,0-23.45a14.2,14.2,0,0,1,2.81-8.66c3-4,11.35-4.13,13.59,2.13a18.8,18.8,0,0,1,1,6.29c0,8,0,16,0,24,0,1.89.92,2.83,2.8,2.84q5.46,0,10.91,0c1.89,0,2.8-.94,2.8-2.84,0-8.51,0-17,0-25.55a36.11,36.11,0,0,0-2.11-13.14c-1.88-4.79-5.13-8.15-10.18-9.59a25,25,0,0,0-10.23-.58,16.54,16.54,0,0,0-7.31,2.63A24.94,24.94,0,0,0,54.75,43ZM31.32,62.63q0-11.25,0-22.48c0-2.21-.95-3.15-3.13-3.15H18.42c-2.3,0-3.25.95-3.25,3.25V85c0,2.25,1,3.2,3.2,3.2h9.57c2.53,0,3.37-.86,3.38-3.4Zm-8-30A10.42,10.42,0,1,0,12.84,22.3,10.43,10.43,0,0,0,23.3,32.64Z" transform="translate(-1 -1)"/></svg>