<svg id="Camada_1" data-name="Camada 1" xmlns="http://www.w3.org/2000/svg" viewBox="0 0 98.66 77.73"><defs><style>.cls-1{fill:#e51f44;}</style></defs><polygon class="cls-1" points="56.49 16.64 56.49 16.64 56.04 16.2 49.99 10.15 36.2 23.93 39.96 27.69 42.49 30.22 42.49 30.22 49.99 37.72 57.49 30.22 57.49 30.22 62.55 25.17 62.55 25.17 63.78 23.93 56.49 16.64"/><polygon class="cls-1" points="69.55 25.17 66.98 25.17 61.92 30.22 66.18 30.22 49.33 47.07 32.49 30.22 38.06 30.22 33.01 25.17 29.12 25.17 24.06 30.22 49.33 55.49 74.6 30.22 69.55 25.17"/><polygon class="cls-1" points="39.07 16.64 41.84 13.87 40.75 13.87 49.99 4.62 59.24 13.87 58.15 13.87 60.92 16.64 61.09 16.64 63.86 13.87 49.99 0 36.12 13.87 38.9 16.64 39.07 16.64"/><path class="cls-1" d="M.67,82.92v-.76H4.85v.76ZM1.83,84.6V80.77h.92V84.6Zm2,2.26a2.21,2.21,0,0,1-1.52-.43A1.84,1.84,0,0,1,1.83,85v-.78h.92V85a1.06,1.06,0,0,0,.27.8A1.3,1.3,0,0,0,3.9,86a3.7,3.7,0,0,0,.46,0L4.92,86l.1.81-.59.08Z" transform="translate(-0.67 -11.14)"/><path class="cls-1" d="M6.32,86.77V80.24h.92v6.53Zm2.84,0v-3a1,1,0,0,0-.22-.68.77.77,0,0,0-.61-.23c-.72,0-1.09.44-1.09,1.32L7,83h.36a.92.92,0,0,1,.34-.69,1.44,1.44,0,0,1,.88-.23,1.42,1.42,0,0,1,1.13.45,1.77,1.77,0,0,1,.4,1.25v3Z" transform="translate(-0.67 -11.14)"/><path class="cls-1" d="M13.87,86.86a2.52,2.52,0,0,1-1.82-.62,2.35,2.35,0,0,1-.64-1.78A2.61,2.61,0,0,1,12,82.7a1.93,1.93,0,0,1,1.54-.63,1.87,1.87,0,0,1,1.45.57,2.35,2.35,0,0,1,.51,1.64,5.6,5.6,0,0,1,0,.6H12.18v-.71h2.43a1.47,1.47,0,0,0-.29-1,1,1,0,0,0-.82-.33,1.11,1.11,0,0,0-.92.4,1.81,1.81,0,0,0-.32,1.13,1.58,1.58,0,0,0,.45,1.22,1.77,1.77,0,0,0,1.27.42,5.12,5.12,0,0,0,.56,0,5.62,5.62,0,0,0,.57-.09l.11.81c-.27.05-.52.08-.75.1Z" transform="translate(-0.67 -11.14)"/><path class="cls-1" d="M22,86.77V82.16h.83l.09,1v3.64Zm2.84,0v-3a.9.9,0,0,0-.22-.64A.78.78,0,0,0,24,82.9c-.73,0-1.09.43-1.09,1.28L22.65,83H23a.89.89,0,0,1,.34-.69,1.71,1.71,0,0,1,2,.22,1.77,1.77,0,0,1,.4,1.25v3Z" transform="translate(-0.67 -11.14)"/><path class="cls-1" d="M28.42,86.86a1.62,1.62,0,0,1-1.12-.35,1.24,1.24,0,0,1-.39-1,1.28,1.28,0,0,1,.55-1.12A2.52,2.52,0,0,1,29,84a5.5,5.5,0,0,1,.74,0,3.61,3.61,0,0,1,.57.15l-.19.63a3.72,3.72,0,0,0-.57-.08H29c-.8,0-1.2.25-1.2.74A.57.57,0,0,0,28,86a.89.89,0,0,0,.58.16,1.54,1.54,0,0,0,.72-.15,1,1,0,0,0,.44-.38.92.92,0,0,0,.14-.47v-.51l.27,1.19h-.37l.15-.14a1.17,1.17,0,0,1-.18.67,1.16,1.16,0,0,1-.52.4A2.17,2.17,0,0,1,28.42,86.86Zm1.63,0L30,85.45l-.12-.38v-1.2a.76.76,0,0,0-.32-.67,1.89,1.89,0,0,0-1-.24l-1.11,0,.09-.81h.93a2.59,2.59,0,0,1,1.7.49A1.74,1.74,0,0,1,30.75,84v1.93l.78.09v.74Z" transform="translate(-0.67 -11.14)"/><path class="cls-1" d="M33.88,86.86a1.46,1.46,0,0,1-1.13-.43,1.73,1.73,0,0,1-.4-1.22v-3h.92v3a.82.82,0,0,0,.23.61,1.07,1.07,0,0,0,1.4-.11,1.73,1.73,0,0,0,.26-1.07l.23,1.25h-.3a1.31,1.31,0,0,1-.43.72A1.2,1.2,0,0,1,33.88,86.86Zm1.28-1.39V82.16h.92v3Zm.07,1.35-.07-1.11V84.9h.92v1l.63.09v.74Z" transform="translate(-0.67 -11.14)"/><path class="cls-1" d="M39.2,86.86a1.63,1.63,0,0,1-1.37-.6,2.79,2.79,0,0,1-.47-1.75,3,3,0,0,1,.47-1.82,1.62,1.62,0,0,1,1.37-.62,1.43,1.43,0,0,1,.88.25,1,1,0,0,1,.39.67h.36l-.32,1.32a1.72,1.72,0,0,0-.28-1.08,1,1,0,0,0-.82-.37,1,1,0,0,0-.85.41,2.2,2.2,0,0,0-.29,1.24,2,2,0,0,0,.29,1.17,1,1,0,0,0,.85.4,1,1,0,0,0,.82-.37,1.77,1.77,0,0,0,.28-1.09l.32,1.32h-.41a.92.92,0,0,1-.36.68A1.41,1.41,0,0,1,39.2,86.86Zm-1.47,2,0-.85,1.48,0a1.37,1.37,0,0,0,1-.39,1.6,1.6,0,0,0,.32-1.08V83.13l.09-1h.84v4.21a2.55,2.55,0,0,1-.57,1.82,2.47,2.47,0,0,1-1.79.62Z" transform="translate(-0.67 -11.14)"/><path class="cls-1" d="M42.9,86.77V80.24h.92v6.53Zm2.84,0v-3a1,1,0,0,0-.22-.68.78.78,0,0,0-.61-.23c-.73,0-1.09.44-1.09,1.32L43.55,83h.36a.89.89,0,0,1,.34-.69,1.71,1.71,0,0,1,2,.22,1.77,1.77,0,0,1,.4,1.25v3Z" transform="translate(-0.67 -11.14)"/><path class="cls-1" d="M47.7,82.92v-.76h4.18v.76Zm1.16,1.68V80.77h.92V84.6Zm2,2.26a2.21,2.21,0,0,1-1.52-.43,1.84,1.84,0,0,1-.46-1.4v-.78h.92V85a1.06,1.06,0,0,0,.27.8,1.29,1.29,0,0,0,.88.24,3.7,3.7,0,0,0,.46,0L52,86l.1.81-.59.08Z" transform="translate(-0.67 -11.14)"/><path class="cls-1" d="M54.69,86.77l-1.83-4.61h1l1.51,3.92h.14v.69Zm-1.75,2.09,0-.82.72-.09a1.94,1.94,0,0,0,.78-.25,1.61,1.61,0,0,0,.56-.57,4.38,4.38,0,0,0,.41-1l1.14-4h1l-1.33,4.21a5.38,5.38,0,0,1-.59,1.33,2.3,2.3,0,0,1-.76.76,3,3,0,0,1-1.06.32Z" transform="translate(-0.67 -11.14)"/><path class="cls-1" d="M63.78,86.77V80.24h.92V86.7Zm1.23.09-.61,0-.62-.07.36-.84a1.6,1.6,0,0,0,.5.13l.56,0a1.65,1.65,0,0,0,1.28-.5,2,2,0,0,0,.46-1.42,1.48,1.48,0,0,0-.28-1,1,1,0,0,0-.78-.33c-.79,0-1.18.44-1.18,1.32L64.43,83h.36c0-.61.42-.92,1.13-.92a1.83,1.83,0,0,1,1.43.55,2.15,2.15,0,0,1,.5,1.54,2.59,2.59,0,0,1-.74,2A2.87,2.87,0,0,1,65,86.86Z" transform="translate(-0.67 -11.14)"/><path class="cls-1" d="M70.91,86.86a1.84,1.84,0,0,1-1.49-.63,3.2,3.2,0,0,1,0-3.53,2.08,2.08,0,0,1,3,0,3.2,3.2,0,0,1,0,3.53A1.85,1.85,0,0,1,70.91,86.86Zm0-.83a.86.86,0,0,0,.78-.41,2.52,2.52,0,0,0,0-2.31.86.86,0,0,0-.78-.41.88.88,0,0,0-.79.41,2.52,2.52,0,0,0,0,2.31A.88.88,0,0,0,70.91,86Z" transform="translate(-0.67 -11.14)"/><path class="cls-1" d="M73.82,82.92v-.76H78v.76ZM75,84.6V80.77h.93V84.6Zm2,2.26a2.19,2.19,0,0,1-1.52-.43A1.85,1.85,0,0,1,75,85v-.78h.93V85a1.06,1.06,0,0,0,.26.8,1.32,1.32,0,0,0,.88.24,3.86,3.86,0,0,0,.47,0l.55-.06.11.81-.6.08Z" transform="translate(-0.67 -11.14)"/><path class="cls-1" d="M79.05,82.92v-.76h4.18v.76Zm1.16,1.68V80.77h.92V84.6Zm2,2.26a2.16,2.16,0,0,1-1.51-.43,1.81,1.81,0,0,1-.47-1.4v-.78h.92V85a1.06,1.06,0,0,0,.27.8,1.3,1.3,0,0,0,.88.24,3.62,3.62,0,0,0,.46,0L83.3,86l.1.81-.59.08Z" transform="translate(-0.67 -11.14)"/><path class="cls-1" d="M84.4,81v-.76h1.43V81Zm2.87,5.86a1.43,1.43,0,0,1-1.16-.43,2.2,2.2,0,0,1-.35-1.4V80.24h.92V85a2.06,2.06,0,0,0,.07.6.57.57,0,0,0,.27.34,1.35,1.35,0,0,0,.6.1,3.35,3.35,0,0,0,.92-.16l.11.81a6.34,6.34,0,0,1-.68.14A5.18,5.18,0,0,1,87.27,86.86Z" transform="translate(-0.67 -11.14)"/><path class="cls-1" d="M92.25,86.86a2.54,2.54,0,0,1-1.82-.62,2.35,2.35,0,0,1-.64-1.78,2.61,2.61,0,0,1,.54-1.76,1.93,1.93,0,0,1,1.54-.63,1.85,1.85,0,0,1,1.45.57,2.35,2.35,0,0,1,.51,1.64,5.6,5.6,0,0,1,0,.6H90.56v-.71H93a1.47,1.47,0,0,0-.29-1,1,1,0,0,0-.82-.33,1.09,1.09,0,0,0-.91.4,1.75,1.75,0,0,0-.33,1.13,1.58,1.58,0,0,0,.45,1.22,1.77,1.77,0,0,0,1.27.42,5.12,5.12,0,0,0,.56,0,5.62,5.62,0,0,0,.57-.09l.11.81c-.27.05-.52.08-.75.1Z" transform="translate(-0.67 -11.14)"/><rect class="cls-1" x="96.27" y="73.25" width="2.39" height="2.39"/></svg>