<svg id="Camada_1" data-name="Camada 1" xmlns="http://www.w3.org/2000/svg" xmlns:xlink="http://www.w3.org/1999/xlink" viewBox="0 0 105.99 30.35"><defs><style>.cls-1{opacity:0.6;}.cls-2{fill:url(#Gradiente_sem_nome_7);}.cls-3{fill:url(#Gradiente_sem_nome_7-2);}.cls-4{opacity:0.4;}.cls-5{fill:url(#Gradiente_sem_nome_7-3);}.cls-6{opacity:0.2;}.cls-7{fill:#c42828;}.cls-8{fill:url(#Gradiente_sem_nome_7-4);}.cls-9{fill:url(#Gradiente_sem_nome_7-5);}.cls-10{fill:url(#Gradiente_sem_nome_7-6);}.cls-11{fill:url(#Gradiente_sem_nome_7-7);}.cls-12{fill:url(#Gradiente_sem_nome_7-8);}.cls-13{fill:url(#Gradiente_sem_nome_7-9);}</style><linearGradient id="Gradiente_sem_nome_7" x1="11.13" y1="42.61" x2="23.22" y2="42.61" gradientUnits="userSpaceOnUse"><stop offset="0" stop-color="#c42828"/><stop offset="1" stop-color="#c42828" stop-opacity="0"/></linearGradient><linearGradient id="Gradiente_sem_nome_7-2" x1="38.28" y1="59.93" x2="49.77" y2="59.93" xlink:href="#Gradiente_sem_nome_7"/><linearGradient id="Gradiente_sem_nome_7-3" x1="25" y1="52.53" x2="30.02" y2="52.53" xlink:href="#Gradiente_sem_nome_7"/><linearGradient id="Gradiente_sem_nome_7-4" x1="39.79" y1="43.04" x2="47.86" y2="43.04" xlink:href="#Gradiente_sem_nome_7"/><linearGradient id="Gradiente_sem_nome_7-5" x1="66.32" y1="42.61" x2="78.41" y2="42.61" xlink:href="#Gradiente_sem_nome_7"/><linearGradient id="Gradiente_sem_nome_7-6" x1="93.46" y1="59.93" x2="104.96" y2="59.93" xlink:href="#Gradiente_sem_nome_7"/><linearGradient id="Gradiente_sem_nome_7-7" x1="80.18" y1="52.53" x2="85.21" y2="52.53" xlink:href="#Gradiente_sem_nome_7"/><linearGradient id="Gradiente_sem_nome_7-8" x1="71.09" y1="60.4" x2="78.8" y2="60.4" xlink:href="#Gradiente_sem_nome_7"/><linearGradient id="Gradiente_sem_nome_7-9" x1="94.98" y1="43.04" x2="103.05" y2="43.04" xlink:href="#Gradiente_sem_nome_7"/></defs><g class="cls-1"><path class="cls-2" d="M12.46,41.43c-.36-1,.71-1.76,1.61-1.78a6.51,6.51,0,0,1,3.29,1.24,14.15,14.15,0,0,1,4.69,4.7l.38-.92a22.81,22.81,0,0,1-3.58.57q-.8.06-1.59.06a7.87,7.87,0,0,1-1.75-.08c-.88-.21-.56-1.61-.58-2.28a9,9,0,0,0-.66-3c-.34-.81-1.18-1.61-2.11-1.1s-.43,1.74-.12,2.52c.44,1.13.87,2.26,1.32,3.38a2.79,2.79,0,0,0,1.73,1.87,11.12,11.12,0,0,0,3.55.21,32.3,32.3,0,0,0,3.93-.4c.8-.13.46-1.34-.33-1.21a27,27,0,0,1-6,.33,2.53,2.53,0,0,1-1-.25,1.78,1.78,0,0,1-.64-1l-1.14-2.91c-.16-.42-.3-.87-.49-1.28,0,.06-.06-.25-.14-.17s.13.08.11,0a2.46,2.46,0,0,1,.32.6,7.76,7.76,0,0,1,.49,2.74A4.6,4.6,0,0,0,14,45.52a2.15,2.15,0,0,0,2,1,23.24,23.24,0,0,0,6.8-.63.63.63,0,0,0,.38-.92A15.55,15.55,0,0,0,17,39.24c-1.27-.64-2.83-1.19-4.21-.57a2.6,2.6,0,0,0-1.52,3.09c.28.75,1.49.43,1.21-.33Z" transform="translate(-0.02 -34.81)"/></g><g class="cls-1"><path class="cls-3" d="M40.81,62.23l-.19,0c.12,0-.12-.11.06,0,0,0-.23-.28-.13-.13s-.07-.15-.09-.18c.1.19,0,0,0-.08s0,.22,0-.06c0,0,0-.4,0-.2s.05-.18.07-.21c-.06.17.05-.11.08-.16a2.39,2.39,0,0,1,.21-.34c-.1.14.1-.1.14-.13l.29-.29a8.17,8.17,0,0,1,1.23-.86A13.43,13.43,0,0,1,49,57.71l-1.44-1.9a21.38,21.38,0,0,1-1.12,3c-.46,1-1,1.86-1.56,2.79-.19.32,0,.08,0,.06-.1.27-.13,0,0,.05s.2,0,0-.05.22.15-.18-.09l-.31-.17c-.25-.15-.51-.31-.77-.45a9.54,9.54,0,0,0-3.16-1,3,3,0,0,0-2,.27,2.22,2.22,0,0,0-1.09,1.94,2,2,0,0,0,1.06,1.69,4.89,4.89,0,0,0,1.69.42c1.19.18,2.39.37,3.59.54a3.72,3.72,0,0,0,3.45-.89,13.36,13.36,0,0,0,2-3.15A33.92,33.92,0,0,0,50.75,57a1.52,1.52,0,0,0-1-1.85,1.54,1.54,0,0,0-1.85,1,26.25,26.25,0,0,1-2.54,5.05s-.3.42-.16.25l-.21.23s-.13.21,0,.05c0,0-.21.12-.08.06s-.16,0-.08,0a2.25,2.25,0,0,1-.44,0c-1-.13-2.06-.31-3.09-.46a8.54,8.54,0,0,0-1.33-.2c-.42,0,0-.05,0,0l.16.63c.32.47.23.79-.27,1,0,.06-.25-.11,0,0s.11,0,0,0l.18,0a6.73,6.73,0,0,1,2.42.86,4.6,4.6,0,0,0,3,.94,3.51,3.51,0,0,0,2.36-1.94,24.39,24.39,0,0,0,2.73-6.1A1.51,1.51,0,0,0,49,54.71a16,16,0,0,0-9,3,5.26,5.26,0,0,0-2.49,4A3.43,3.43,0,0,0,40,65.12a1.54,1.54,0,0,0,1.84-1.05,1.5,1.5,0,0,0-1-1.84Z" transform="translate(-0.02 -34.81)"/></g><g class="cls-4"><path class="cls-5" d="M27.37,50.33l.09-.15c-.15.17-.18.22-.1.14s0,0-.05,0,.16-.05-.1.07.07,0,.08,0-.36,0-.13,0-.09,0-.12,0,.36.13.08,0,0,0,0,0-.2-.2,0,0l.15.16s-.17-.26,0,0,.1.16.14.24a1.86,1.86,0,0,1,.1.2c.09.16-.09-.27,0,0a4.72,4.72,0,0,1,.18.53,10.34,10.34,0,0,1,.26,1.1s0,.4,0,.19,0,.1,0,.13c0,.2,0,.4,0,.6a10.59,10.59,0,0,1,0,1.13c0,.11,0,.23,0,.34,0-.15,0-.15,0,0s-.09.44-.14.65L30,54.78c-.29-.18-.58-.36-.86-.56l-.41-.3c.24.18-.12-.1-.19-.16a14.88,14.88,0,0,1-1.51-1.46s-.15-.24-.06-.07,0,0,0,0a.9.9,0,0,1,.09.66c-.1.3-.09.17,0,.08.16-.25,0,.05-.05,0l.16-.16c.12-.12.25-.23.37-.36a6.58,6.58,0,0,0,1.31-1.9,2.72,2.72,0,0,0,.3-1.56,1.94,1.94,0,0,0-1.32-1.58,1.8,1.8,0,0,0-1.67.32,2.74,2.74,0,0,0-.78,1.15L24.46,51A4.15,4.15,0,0,0,24,52.42a2.7,2.7,0,0,0,.37,1.5,8.92,8.92,0,0,0,1.72,1.91,21,21,0,0,0,2.09,1.68,1.5,1.5,0,0,0,2-.54,1.54,1.54,0,0,0-.54-2l-.37-.27c-.14-.1,0,0,0,0l-.15-.13c-.26-.2-.51-.41-.76-.63-.44-.4-.86-.81-1.26-1.25L27,52.5c-.11-.12,0,0,0,.06a.75.75,0,0,0-.09-.15c-.14-.15.06.22,0,0s0,.09,0,.1-.08.24,0,.11.1-.29,0-.11,0-.09.06-.12l.79-1.82c.11-.25.27-.51.35-.76l-1-.26c-.74.17-1.08.06-1-.34.12,0-.09-.09,0,0,0-.09.09-.2,0,0l-.11.22c-.07.13-.15.26-.23.38s-.31.37-.1.15c-.2.2-.38.41-.59.6a2.9,2.9,0,0,0-1,2,3.13,3.13,0,0,0,1.09,2.05,16.09,16.09,0,0,0,3.31,2.67,1.51,1.51,0,0,0,2.2-.9,10.78,10.78,0,0,0-.46-6.64,3.66,3.66,0,0,0-2.36-2.29,2.73,2.73,0,0,0-3.1,1.28,1.53,1.53,0,0,0,.54,2,1.51,1.51,0,0,0,2.05-.54Z" transform="translate(-0.02 -34.81)"/></g><g class="cls-6"><path class="cls-7" d="M5,51.62l.15.08-.31-.23a.63.63,0,0,1,.12.11l-.24-.3a.72.72,0,0,1,.11.19l-.15-.35a1.42,1.42,0,0,1,0,.22l0-.4a.88.88,0,0,1,0,.23l0-.4a1,1,0,0,1,0,.22l.15-.36a.94.94,0,0,1-.12.22L5,50.54a2.73,2.73,0,0,1-.23.25l.3-.24a2,2,0,0,1-.49.28l.36-.15A6.23,6.23,0,0,1,3.54,51l.4-.06A6.43,6.43,0,0,1,2.3,51l.4.05c-.23,0-.46-.08-.69-.13l.9,2.2a8.56,8.56,0,0,1,.63-.94l-.24.3a7.28,7.28,0,0,1,1.21-1.27l-.31.23.18-.1L4,51.46l.07,0-.4.05a.56.56,0,0,1,.13,0l-.4-.05a.28.28,0,0,1,.13,0l-.36-.15a.84.84,0,0,1,.24.14l-.31-.24c.16.13.29.28.43.41a6.73,6.73,0,0,0,.73.59,3.15,3.15,0,0,0,1.77.63,1.76,1.76,0,0,0,1.5-2.6A3,3,0,0,0,6,49.18a11.82,11.82,0,0,0-1.6-.68,2.39,2.39,0,0,0-2.23.63A11.43,11.43,0,0,0,.22,51.37a1.52,1.52,0,0,0-.15,1.16,1.49,1.49,0,0,0,.69.89,1.53,1.53,0,0,0,2.05-.54l.34-.47-.23.3A9.6,9.6,0,0,1,4.33,51.2l-.3.24a1.13,1.13,0,0,1,.26-.16l-.36.15a.9.9,0,0,1,.22-.06l-.4.05h.16l-.4-.06a1.76,1.76,0,0,1,.3.1l-.36-.15,1,.45a5.46,5.46,0,0,1,1,.44L5.1,52l.05.05-.23-.31,0,0-.16-.35,0,.06-.06-.4v.06l0-.4,0,.07L5,50.44l0,.05.23-.3,0,0L5.42,50l-.06,0,.35-.15-.06,0,.4,0H5.89l.4,0a1.69,1.69,0,0,1-.24-.08l.36.15a4.25,4.25,0,0,1-.74-.44l.3.24a8.3,8.3,0,0,0-1.2-1,2.09,2.09,0,0,0-1.51-.19,2.49,2.49,0,0,0-1,.64,10,10,0,0,0-1.9,2.38,1.51,1.51,0,0,0,.89,2.2A7.55,7.55,0,0,0,6,53.42a2.75,2.75,0,0,0,1.59-1.8A2.33,2.33,0,0,0,6.53,49a1.62,1.62,0,0,0-1.16-.16,1.59,1.59,0,0,0-.9.69A1.54,1.54,0,0,0,5,51.62Z" transform="translate(-0.02 -34.81)"/></g><g class="cls-1"><path class="cls-8" d="M43.08,38.24c.1-.18.08-.13.17-.17a.49.49,0,0,1,.16,0,1,1,0,0,1,.88.25A4.68,4.68,0,0,1,45.53,41,15.57,15.57,0,0,1,45,49.17l2.21-.9a22.54,22.54,0,0,1-5-5c-.07-.09-.27-.33-.26-.4s0,.07,0,.1c.22-.45.91-.82,1.27-1.14a10.69,10.69,0,0,0,2.3-2.8c.74-1.29,1-3.05-.5-3.94s-2.7.3-3.35,1.51l-2,3.75A4.3,4.3,0,0,0,39,44.13a12.84,12.84,0,0,0,2.65,3.65,33.69,33.69,0,0,0,3.15,3.06,1.53,1.53,0,0,0,2.12,0,1.51,1.51,0,0,0,0-2.12A34.22,34.22,0,0,1,44.14,46,14.13,14.13,0,0,1,42,43.36a.78.78,0,0,1,0-.92c.26-.54.58-1.07.87-1.6l1-1.88.51-.93c.37-.67.21-.16-.23-.19l-.75-.2c-.15-.07-.14-.54-.19-.53s-.18.37-.22.43a7.58,7.58,0,0,1-.61.94A9.42,9.42,0,0,1,40.86,40c-1.19,1-2.31,2.25-1.73,3.91a7.35,7.35,0,0,0,1.38,2.07q.69.87,1.47,1.68a28.86,28.86,0,0,0,3.75,3.24A1.52,1.52,0,0,0,47.94,50,17.88,17.88,0,0,0,48,38.79a5.35,5.35,0,0,0-3.32-3.62,3.7,3.7,0,0,0-4.22,1.55,1.5,1.5,0,0,0,2.59,1.52Z" transform="translate(-0.02 -34.81)"/></g><g class="cls-1"><path class="cls-9" d="M67.65,41.43c-.36-1,.7-1.76,1.61-1.78a6.54,6.54,0,0,1,3.29,1.24,14.24,14.24,0,0,1,4.69,4.7l.38-.92a22.81,22.81,0,0,1-3.58.57q-.8.06-1.59.06a7.87,7.87,0,0,1-1.75-.08c-.89-.21-.56-1.61-.59-2.28a8.75,8.75,0,0,0-.65-3c-.34-.81-1.18-1.61-2.11-1.1s-.43,1.74-.13,2.52c.44,1.13.88,2.26,1.33,3.38a2.76,2.76,0,0,0,1.72,1.87,11.18,11.18,0,0,0,3.56.21,32.3,32.3,0,0,0,3.93-.4c.79-.13.46-1.34-.33-1.21a27,27,0,0,1-6,.33,2.53,2.53,0,0,1-1-.25,1.73,1.73,0,0,1-.64-1l-1.14-2.91c-.17-.42-.3-.87-.5-1.28,0,.06,0-.25-.13-.17s.13.08.11,0a2.86,2.86,0,0,1,.32.6,7.76,7.76,0,0,1,.49,2.74,4.72,4.72,0,0,0,.27,2.21,2.17,2.17,0,0,0,2,1,23.24,23.24,0,0,0,6.8-.63.63.63,0,0,0,.37-.92,15.42,15.42,0,0,0-6.16-5.72c-1.26-.64-2.82-1.19-4.2-.57a2.59,2.59,0,0,0-1.52,3.09c.27.75,1.48.43,1.21-.33Z" transform="translate(-0.02 -34.81)"/></g><g class="cls-1"><path class="cls-10" d="M96,62.23s-.38,0-.18,0-.12-.11.06,0c0,0-.23-.28-.14-.13s-.06-.15-.08-.18c.09.19,0,0,0-.08s0,.22,0-.06c0,0,0-.4,0-.2s.05-.18.06-.21c0,.17,0-.11.08-.16a4,4,0,0,1,.22-.34c-.11.14.1-.1.13-.13l.3-.29a8.17,8.17,0,0,1,1.23-.86,13.43,13.43,0,0,1,6.49-1.9l-1.45-1.9a20.16,20.16,0,0,1-1.11,3c-.46,1-1,1.86-1.57,2.79-.19.32,0,.08,0,.06-.1.27-.14,0,0,.05s.21,0,0-.05.21.15-.19-.09l-.3-.17c-.26-.15-.51-.31-.77-.45a9.69,9.69,0,0,0-3.16-1,3,3,0,0,0-2,.27,2.2,2.2,0,0,0-1.09,1.94,2,2,0,0,0,1.06,1.69,4.83,4.83,0,0,0,1.68.42c1.2.18,2.39.37,3.59.54a3.71,3.71,0,0,0,3.45-.89,13.09,13.09,0,0,0,2-3.15,32,32,0,0,0,1.64-3.7,1.51,1.51,0,0,0-1-1.85,1.54,1.54,0,0,0-1.85,1,26.29,26.29,0,0,1-2.55,5.05s-.29.42-.16.25c-.06.08-.14.15-.2.23s-.14.21,0,.05c0,0-.22.12-.08.06s-.16,0-.08,0a2.18,2.18,0,0,1-.44,0c-1-.13-2.06-.31-3.09-.46a8.72,8.72,0,0,0-1.33-.2c-.42,0,0-.05,0,0l.16.63c.32.47.22.79-.28,1,0,.06-.24-.11,0,0s.11,0,0,0l.19,0a6.87,6.87,0,0,1,2.42.86,4.58,4.58,0,0,0,3,.94,3.53,3.53,0,0,0,2.36-1.94,24.39,24.39,0,0,0,2.73-6.1,1.52,1.52,0,0,0-1.45-1.9,16.09,16.09,0,0,0-9,3,5.25,5.25,0,0,0-2.48,4,3.42,3.42,0,0,0,2.56,3.46A1.54,1.54,0,0,0,97,64.07,1.51,1.51,0,0,0,96,62.23Z" transform="translate(-0.02 -34.81)"/></g><g class="cls-4"><path class="cls-11" d="M82.56,50.33s.09-.14.08-.15c-.14.17-.17.22-.09.14s0,0,0,0,.16-.05-.1.07.07,0,.08,0-.36,0-.13,0-.1,0-.12,0,.36.13.08,0,0,0,0,0-.19-.2,0,0l.15.16s-.17-.26,0,0,.1.16.14.24l.1.2c.09.16-.09-.27,0,0l.18.53c.1.36.19.73.26,1.1,0,0,.05.4,0,.19s0,.1,0,.13c0,.2,0,.4,0,.6a8.48,8.48,0,0,1,0,1.13l0,.34c0-.15,0-.15,0,0s-.08.44-.13.65l2.2-.89c-.29-.18-.57-.36-.85-.56l-.41-.3c.24.18-.12-.1-.19-.16a13.9,13.9,0,0,1-1.51-1.46s-.16-.24-.07-.07,0,0,0,0a.85.85,0,0,1,.08.66c-.09.3-.09.17,0,.08.17-.25,0,.05,0,0l.15-.16c.12-.12.25-.23.37-.36A6.42,6.42,0,0,0,84,50.56a2.81,2.81,0,0,0,.3-1.56A1.94,1.94,0,0,0,83,47.42a1.82,1.82,0,0,0-1.68.32,2.72,2.72,0,0,0-.77,1.15c-.3.7-.6,1.39-.91,2.08a4.15,4.15,0,0,0-.45,1.45,2.71,2.71,0,0,0,.38,1.5,8.92,8.92,0,0,0,1.72,1.91,20.92,20.92,0,0,0,2.08,1.68,1.49,1.49,0,0,0,2-.54,1.54,1.54,0,0,0-.53-2l-.38-.27,0,0-.16-.13c-.25-.2-.51-.41-.75-.63-.44-.4-.86-.81-1.27-1.25l-.16-.18c-.12-.12,0,0,0,.06a.78.78,0,0,0-.1-.15c-.13-.15.07.22,0,0s0,.09,0,.1-.07.24,0,.11.09-.29,0-.11,0-.09.05-.12l.8-1.82c.11-.25.26-.51.34-.76l-1-.26c-.74.17-1.08.06-1-.34.11,0-.09-.09,0,0,0-.09.1-.2,0,0l-.12.22c-.07.13-.14.26-.22.38s-.31.37-.11.15c-.19.2-.38.41-.58.6a2.9,2.9,0,0,0-1,2,3.12,3.12,0,0,0,1.08,2.05,16.42,16.42,0,0,0,3.32,2.67,1.51,1.51,0,0,0,2.2-.9,10.78,10.78,0,0,0-.47-6.64,3.65,3.65,0,0,0-2.35-2.29A2.72,2.72,0,0,0,80,48.82a1.5,1.5,0,1,0,2.59,1.51Z" transform="translate(-0.02 -34.81)"/></g><g class="cls-4"><path class="cls-12" d="M76.87,59.48s.3.09,0,0-.14-.06,0,0l-.18-.13c.19.18-.11-.22,0-.09a.46.46,0,0,0,.1.18c-.08-.06-.11-.34-.06-.08s0-.37,0-.11c0,.07,0,.33,0,.06s0,.07,0,.06.16-.32,0,0c-.06.1-.1.29,0,0-.06.14-.26.28-.37.38l-.09.08c.17-.15-.09.06-.11.07a3.88,3.88,0,0,1-.48.3,4.37,4.37,0,0,1-1,.53c.11,0,.21-.09,0,0l-.33.12-.49.15a11.44,11.44,0,0,1-1.13.25c-.19,0,.29,0,0,0l-.29,0-.63,0,1.44,1.89q.15-.48.33-1c0-.1.08-.19.11-.28s.09-.27,0,0a3.76,3.76,0,0,1,.25-.54,19.35,19.35,0,0,1,1-1.77c.12-.21,0,0-.07.07.18-.19-.11,0-.19.08a1.06,1.06,0,0,1-.39,0c-.21,0,0,0,0,0s-.29-.18,0,0a2,2,0,0,0,.19.12l.49.29a6.78,6.78,0,0,0,2.14.73,2.47,2.47,0,0,0,1.71-.23,2,2,0,0,0,1-1.7,1.87,1.87,0,0,0-.94-1.55,3.69,3.69,0,0,0-1.21-.33l-2.28-.37a3.71,3.71,0,0,0-1.52,0,2.72,2.72,0,0,0-1.21.72,8.8,8.8,0,0,0-1.4,2.11,22.18,22.18,0,0,0-1.13,2.48,1.5,1.5,0,0,0,1,1.84,1.53,1.53,0,0,0,1.84-1,4.89,4.89,0,0,1,.19-.46s-.11.23,0,.07a2.14,2.14,0,0,1,.1-.22c.12-.28.26-.56.4-.83a15.85,15.85,0,0,1,1-1.64.83.83,0,0,1,.08-.12c.14-.21,0,.06-.06.07s.1-.11.13-.14.21-.13-.09.06c0,0,.17-.08,0,0s.17-.08-.09,0,0,0,0,0c.38.08-.21-.05,0,0,.65.13,1.32.21,2,.31a6,6,0,0,0,.85.14c.21,0,0,0-.11-.07l-.2-.77c-.4-.6-.27-1,.4-1.25,0,0,.31,0,.14,0s.31.08,0,0a7.23,7.23,0,0,1-.8-.21l-.22-.08s.28.13,0,0l-.42-.22a3.42,3.42,0,0,0-2.22-.68,2.8,2.8,0,0,0-1.91,1.49,16.34,16.34,0,0,0-1.83,4,1.52,1.52,0,0,0,1.45,1.9,10.86,10.86,0,0,0,6-1.93,3.88,3.88,0,0,0,1.87-3,2.73,2.73,0,0,0-2-2.74,1.54,1.54,0,0,0-1.85,1,1.52,1.52,0,0,0,1.05,1.84Z" transform="translate(-0.02 -34.81)"/></g><g class="cls-6"><path class="cls-7" d="M60.2,51.62l.14.08-.3-.23.11.11-.23-.3a1.18,1.18,0,0,1,.11.19l-.15-.35a1.42,1.42,0,0,1,0,.22l0-.4v.23l0-.4a2.25,2.25,0,0,1,0,.22l.15-.36a1.55,1.55,0,0,1-.12.22l.23-.31a1.88,1.88,0,0,1-.24.25l.31-.24a2.2,2.2,0,0,1-.49.28l.36-.15a6.32,6.32,0,0,1-1.36.35l.4-.06a6.43,6.43,0,0,1-1.64,0l.4.05c-.23,0-.46-.08-.68-.13l.89,2.2c.2-.33.41-.64.63-.94l-.23.3a7.23,7.23,0,0,1,1.2-1.27l-.3.23.18-.1-.36.15.07,0-.4.05a.57.57,0,0,1,.13,0l-.4-.05a.31.31,0,0,1,.13,0l-.36-.15a.79.79,0,0,1,.23.14l-.3-.24c.15.13.28.28.43.41a5.23,5.23,0,0,0,.73.59,3.15,3.15,0,0,0,1.77.63,1.76,1.76,0,0,0,1.49-2.6,2.9,2.9,0,0,0-1.57-1.07,11.7,11.7,0,0,0-1.59-.68,2.41,2.41,0,0,0-2.24.63,12.15,12.15,0,0,0-1.93,2.24,1.5,1.5,0,0,0,.54,2.05A1.53,1.53,0,0,0,58,52.88l.35-.47-.24.3a9.66,9.66,0,0,1,1.42-1.51l-.31.24a1.48,1.48,0,0,1,.27-.16l-.36.15a.79.79,0,0,1,.22-.06l-.4.05h.15l-.4-.06a1.6,1.6,0,0,1,.31.1l-.36-.15,1,.45a5.83,5.83,0,0,1,1,.44L60.29,52l.05.05-.23-.31,0,0L60,51.41l0,.06,0-.4v.06l.06-.4,0,.07.15-.36,0,.05.24-.3-.05,0,.3-.23-.06,0,.36-.15-.06,0,.4,0h-.17l.4,0-.23-.08.35.15a4.16,4.16,0,0,1-.73-.44l.3.24a8.38,8.38,0,0,0-1.21-1,2.06,2.06,0,0,0-1.5-.19,2.59,2.59,0,0,0-1.05.64,10.21,10.21,0,0,0-1.9,2.38,1.52,1.52,0,0,0,.9,2.2,7.55,7.55,0,0,0,4.83-.36,2.71,2.71,0,0,0,1.58-1.8A2.31,2.31,0,0,0,61.71,49a1.59,1.59,0,0,0-1.15-.16,1.56,1.56,0,0,0-.9.69,1.53,1.53,0,0,0,.54,2.06Z" transform="translate(-0.02 -34.81)"/></g><g class="cls-1"><path class="cls-13" d="M98.27,38.24c.1-.18.07-.13.17-.17a.43.43,0,0,1,.16,0,1,1,0,0,1,.88.25A4.81,4.81,0,0,1,100.72,41a15.68,15.68,0,0,1-.49,8.15l2.2-.9a22.75,22.75,0,0,1-5-5c-.06-.09-.26-.33-.26-.4s0,.07,0,.1c.23-.45.91-.82,1.28-1.14a10.89,10.89,0,0,0,2.3-2.8c.74-1.29,1-3.05-.51-3.94s-2.69.3-3.35,1.51l-2,3.75a4.27,4.27,0,0,0-.61,3.75,12.65,12.65,0,0,0,2.65,3.65A33.69,33.69,0,0,0,100,50.84a1.53,1.53,0,0,0,2.12,0,1.51,1.51,0,0,0,0-2.12A34.22,34.22,0,0,1,99.33,46a14.13,14.13,0,0,1-2.16-2.66.78.78,0,0,1,0-.92c.26-.54.58-1.07.86-1.6L99,39l.51-.93c.36-.67.21-.16-.23-.19l-.76-.2c-.15-.07-.13-.54-.18-.53s-.19.37-.22.43a7.64,7.64,0,0,1-.62.94A9,9,0,0,1,96.05,40c-1.19,1-2.31,2.25-1.73,3.91a7.31,7.31,0,0,0,1.37,2.07c.47.58,1,1.14,1.48,1.68a28.22,28.22,0,0,0,3.75,3.24,1.51,1.51,0,0,0,2.2-.89,17.74,17.74,0,0,0,.09-11.18,5.33,5.33,0,0,0-3.32-3.62,3.69,3.69,0,0,0-4.21,1.55,1.5,1.5,0,0,0,2.59,1.52Z" transform="translate(-0.02 -34.81)"/></g></svg>