<svg id="Camada_1" data-name="Camada 1" xmlns="http://www.w3.org/2000/svg" viewBox="0 0 90.67 99.56"><defs><style>.cls-1{fill:#e51f44;}</style></defs><polygon class="cls-1" points="58.18 29.86 58.18 29.86 57.38 29.06 46.52 18.2 21.79 42.94 28.53 49.69 33.07 54.22 33.07 54.22 46.52 67.68 59.98 54.22 59.98 54.22 69.05 45.15 69.05 45.15 71.26 42.94 58.18 29.86"/><polygon class="cls-1" points="81.61 45.15 77 45.15 67.93 54.22 75.56 54.22 45.34 84.45 15.11 54.22 25.12 54.22 16.05 45.15 9.07 45.15 0 54.22 45.34 99.56 90.67 54.22 81.61 45.15"/><polygon class="cls-1" points="26.92 29.86 31.9 24.88 29.93 24.88 46.52 8.29 63.11 24.88 61.15 24.88 66.13 29.86 66.43 29.86 71.41 24.88 46.52 0 21.64 24.88 26.62 29.86 26.92 29.86"/></svg>