<svg id="Camada_1" data-name="Camada 1" xmlns="http://www.w3.org/2000/svg" viewBox="0 0 100 20.03"><defs><style>.cls-1{fill:#e51f44;}</style></defs><path class="cls-1" d="M32.5,51h-.32a1,1,0,0,1-.63-.17.74.74,0,0,1-.19-.57V48.84h1.49V48.3H31.36v-1H30.7v1h-.82v.54h.82v1.5a1.28,1.28,0,0,0,.34,1,1.52,1.52,0,0,0,1.07.31l.44,0,.43,0L32.9,51Z" transform="translate(0 -39.99)"/><path class="cls-1" d="M35.48,48.24a1,1,0,0,0-.62.16.6.6,0,0,0-.24.49h-.07v-2H33.9v4.64h.65V49.73c0-.62.26-.94.78-.94a.56.56,0,0,1,.43.17.69.69,0,0,1,.16.48v2.14h.65V49.44a1.28,1.28,0,0,0-.28-.89A1,1,0,0,0,35.48,48.24Z" transform="translate(0 -39.99)"/><path class="cls-1" d="M39,48.24a1.35,1.35,0,0,0-1.09.44,1.85,1.85,0,0,0-.39,1.25A1.66,1.66,0,0,0,38,51.2a1.78,1.78,0,0,0,1.29.44l.43,0a3.69,3.69,0,0,0,.53-.07L40.14,51l-.4.06a2.68,2.68,0,0,1-.4,0,1.25,1.25,0,0,1-.9-.29,1,1,0,0,1-.29-.54h2.22c0-.13,0-.27,0-.42A1.71,1.71,0,0,0,40,48.64,1.3,1.3,0,0,0,39,48.24Zm-.86,1.49a1.08,1.08,0,0,1,.22-.63.79.79,0,0,1,.65-.29.73.73,0,0,1,.58.24,1,1,0,0,1,.21.68Z" transform="translate(0 -39.99)"/><path class="cls-1" d="M46.62,48.24a1,1,0,0,0-.62.16.63.63,0,0,0-.24.49h-.07l-.06-.59H45v3.28h.65V49.73c0-.6.26-.91.78-.91a.6.6,0,0,1,.43.16.66.66,0,0,1,.16.46v2.14h.65V49.44a1.28,1.28,0,0,0-.28-.89A1,1,0,0,0,46.62,48.24Z" transform="translate(0 -39.99)"/><path class="cls-1" d="M51.26,49.62a1.2,1.2,0,0,0-.4-1,1.77,1.77,0,0,0-1.2-.35H49l-.06.58.79,0a1.23,1.23,0,0,1,.68.17.52.52,0,0,1,.23.48v.15l-.09,0a4.11,4.11,0,0,0-.53,0,1.89,1.89,0,0,0-1.09.27.94.94,0,0,0-.39.8.87.87,0,0,0,.28.7,1.15,1.15,0,0,0,.8.25,1.6,1.6,0,0,0,.56-.09.83.83,0,0,0,.37-.29.85.85,0,0,0,.12-.37h.07l0,.72,1.06,0v-.53L51.26,51Zm-.73,1.12a.75.75,0,0,1-.31.27,1.08,1.08,0,0,1-.51.1A.61.61,0,0,1,49.3,51a.41.41,0,0,1-.15-.34c0-.34.28-.52.85-.52h.41l.22,0v.22A.61.61,0,0,1,50.53,50.74Z" transform="translate(0 -39.99)"/><path class="cls-1" d="M55.05,50.46V48.3h-.66v1.76a1.23,1.23,0,0,1-.18.76.63.63,0,0,1-.54.23.65.65,0,0,1-.46-.15.61.61,0,0,1-.16-.44V48.3H52.4v2.16a1.21,1.21,0,0,0,.28.87,1,1,0,0,0,.8.31.83.83,0,0,0,.86-.69h.06l.05.66,1,0v-.53L55.05,51Z" transform="translate(0 -39.99)"/><path class="cls-1" d="M58.21,48.89h0a.68.68,0,0,0-.28-.48,1,1,0,0,0-.62-.17,1.13,1.13,0,0,0-1,.44A2.12,2.12,0,0,0,56,50a2,2,0,0,0,.33,1.25,1.17,1.17,0,0,0,1,.42,1,1,0,0,0,.6-.17.69.69,0,0,0,.27-.49h.06v.41a1.13,1.13,0,0,1-.23.76,1,1,0,0,1-.73.28l-1.05,0,0,.6,1,0a1.76,1.76,0,0,0,1.27-.45,1.8,1.8,0,0,0,.4-1.29v-3h-.59ZM58,50.82a.69.69,0,0,1-.59.26.7.7,0,0,1-.6-.28,1.38,1.38,0,0,1-.2-.83,1.53,1.53,0,0,1,.2-.88.69.69,0,0,1,.6-.3.7.7,0,0,1,.59.27,1.26,1.26,0,0,1,.2.77v.22A1.29,1.29,0,0,1,58,50.82Z" transform="translate(0 -39.99)"/><path class="cls-1" d="M61.48,48.24a1,1,0,0,0-.63.16.66.66,0,0,0-.24.49h-.06v-2h-.66v4.64h.66V49.73c0-.62.26-.94.77-.94a.59.59,0,0,1,.44.17.69.69,0,0,1,.15.48v2.14h.66V49.44a1.29,1.29,0,0,0-.29-.89A1,1,0,0,0,61.48,48.24Z" transform="translate(0 -39.99)"/><path class="cls-1" d="M65.93,51H65.6a1,1,0,0,1-.63-.17.78.78,0,0,1-.19-.57V48.84h1.49V48.3H64.78v-1h-.65v1H63.3v.54h.83v1.5a1.31,1.31,0,0,0,.33,1,1.53,1.53,0,0,0,1.08.31l.44,0,.42,0L66.32,51Z" transform="translate(0 -39.99)"/><path class="cls-1" d="M68.77,51.08h0L67.65,48.3H67l1.31,3.28h.31c0,.09-.08.18-.12.25a1.21,1.21,0,0,1-.4.41,1.32,1.32,0,0,1-.55.17l-.52.07,0,.58.56-.06a1.89,1.89,0,0,0,.75-.23,1.66,1.66,0,0,0,.55-.54,4,4,0,0,0,.41-.94l1-3h-.68Z" transform="translate(0 -39.99)"/><path class="cls-1" d="M76.25,48.24c-.5,0-.77.21-.8.65h-.06v-2h-.66v4.64l.44,0,.44,0a2.1,2.1,0,0,0,1.49-.5,1.89,1.89,0,0,0,.53-1.42,1.57,1.57,0,0,0-.36-1.1A1.31,1.31,0,0,0,76.25,48.24Zm.41,2.49a1.21,1.21,0,0,1-.92.35h-.35V49.73c0-.62.28-.94.83-.94a.67.67,0,0,1,.56.24,1.09,1.09,0,0,1,.2.69A1.49,1.49,0,0,1,76.66,50.73Z" transform="translate(0 -39.99)"/><path class="cls-1" d="M79.8,48.24a1.29,1.29,0,0,0-1.06.44,1.91,1.91,0,0,0-.38,1.26,1.87,1.87,0,0,0,.38,1.25,1.3,1.3,0,0,0,1.06.45,1.31,1.31,0,0,0,1.06-.45,1.87,1.87,0,0,0,.37-1.25,1.91,1.91,0,0,0-.37-1.26A1.31,1.31,0,0,0,79.8,48.24Zm.56,2.52a.69.69,0,0,1-1.12,0,1.46,1.46,0,0,1-.2-.82,1.5,1.5,0,0,1,.2-.83.69.69,0,0,1,1.12,0,1.5,1.5,0,0,1,.19.83A1.46,1.46,0,0,1,80.36,50.76Z" transform="translate(0 -39.99)"/><path class="cls-1" d="M84.5,51h-.33a1,1,0,0,1-.63-.17.74.74,0,0,1-.19-.57V48.84h1.49V48.3H83.35v-1H82.7v1h-.83v.54h.83v1.5a1.31,1.31,0,0,0,.33,1,1.53,1.53,0,0,0,1.08.31l.43,0,.43,0L84.89,51Z" transform="translate(0 -39.99)"/><path class="cls-1" d="M88.21,51h-.33a.92.92,0,0,1-.62-.17.74.74,0,0,1-.2-.57V48.84h1.5V48.3h-1.5v-1h-.65v1h-.82v.54h.82v1.5a1.31,1.31,0,0,0,.33,1,1.53,1.53,0,0,0,1.08.31l.44,0,.42,0L88.61,51Z" transform="translate(0 -39.99)"/><path class="cls-1" d="M91.68,51.05a.84.84,0,0,1-.43-.08.36.36,0,0,1-.19-.24,1.27,1.27,0,0,1,0-.42V46.94H89.39v.53h1v2.87a1.56,1.56,0,0,0,.26,1,1,1,0,0,0,.82.31,4,4,0,0,0,.5,0,3.17,3.17,0,0,0,.48-.1l-.08-.58A2.32,2.32,0,0,1,91.68,51.05Z" transform="translate(0 -39.99)"/><path class="cls-1" d="M94.7,48.24a1.38,1.38,0,0,0-1.1.44,1.9,1.9,0,0,0-.38,1.25,1.7,1.7,0,0,0,.45,1.27,1.83,1.83,0,0,0,1.3.44l.43,0a3.88,3.88,0,0,0,.53-.07L95.85,51l-.4.06a2.82,2.82,0,0,1-.41,0,1.25,1.25,0,0,1-.9-.29,1,1,0,0,1-.28-.54h2.21c0-.13,0-.27,0-.42a1.71,1.71,0,0,0-.36-1.17A1.33,1.33,0,0,0,94.7,48.24Zm-.87,1.49a1.24,1.24,0,0,1,.22-.63.8.8,0,0,1,.65-.29.73.73,0,0,1,.58.24,1,1,0,0,1,.21.68Z" transform="translate(0 -39.99)"/><rect class="cls-1" x="98.3" y="9.89" width="1.7" height="1.7"/><polygon class="cls-1" points="9.36 3.66 4.38 8.64 5.74 9.99 6.65 10.91 6.65 10.91 9.36 13.62 12.07 10.91 12.07 10.91 13.89 9.08 13.89 9.08 14.34 8.64 9.36 3.66"/><polygon class="cls-1" points="16.42 9.08 15.49 9.08 13.66 10.91 15.2 10.91 9.12 16.99 3.04 10.91 5.05 10.91 3.23 9.08 1.82 9.08 0 10.91 9.12 20.03 18.24 10.91 16.42 9.08"/><polygon class="cls-1" points="5.42 6.01 6.42 5 6.02 5 9.36 1.67 12.7 5 12.3 5 13.3 6.01 13.36 6.01 14.36 5 9.36 0 4.35 5 5.36 6.01 5.42 6.01"/></svg>